STARTFONT 2.1
COMMENT Exported by Fony v1.4.7
FONT robotoR18
SIZE 29 96 96
FONTBOUNDINGBOX 23 28 0 -6
STARTPROPERTIES 6
COPYRIGHT "Copyright 2011 Google Inc. All Rights Reserved."
RESOLUTION_X 96
RESOLUTION_Y 96
FONT_ASCENT 23
FONT_DESCENT 6
DEFAULT_CHAR 0
ENDPROPERTIES
CHARS 256
STARTCHAR 000
ENCODING 0
SWIDTH 72 0
DWIDTH 1 0
BBX 0 0 0 0
BITMAP
ENDCHAR
STARTCHAR 001
ENCODING 1
SWIDTH 72 0
DWIDTH 1 0
BBX 0 0 0 0
BITMAP
ENDCHAR
STARTCHAR 002
ENCODING 2
SWIDTH 72 0
DWIDTH 1 0
BBX 0 0 0 0
BITMAP
ENDCHAR
STARTCHAR 003
ENCODING 3
SWIDTH 72 0
DWIDTH 1 0
BBX 0 0 0 0
BITMAP
ENDCHAR
STARTCHAR 004
ENCODING 4
SWIDTH 72 0
DWIDTH 1 0
BBX 0 0 0 0
BITMAP
ENDCHAR
STARTCHAR 005
ENCODING 5
SWIDTH 72 0
DWIDTH 1 0
BBX 0 0 0 0
BITMAP
ENDCHAR
STARTCHAR 006
ENCODING 6
SWIDTH 72 0
DWIDTH 1 0
BBX 0 0 0 0
BITMAP
ENDCHAR
STARTCHAR 007
ENCODING 7
SWIDTH 72 0
DWIDTH 1 0
BBX 0 0 0 0
BITMAP
ENDCHAR
STARTCHAR 008
ENCODING 8
SWIDTH 72 0
DWIDTH 1 0
BBX 0 0 0 0
BITMAP
ENDCHAR
STARTCHAR 009
ENCODING 9
SWIDTH 72 0
DWIDTH 1 0
BBX 0 0 0 0
BITMAP
ENDCHAR
STARTCHAR 010
ENCODING 10
SWIDTH 72 0
DWIDTH 1 0
BBX 0 0 0 0
BITMAP
ENDCHAR
STARTCHAR 011
ENCODING 11
SWIDTH 72 0
DWIDTH 1 0
BBX 0 0 0 0
BITMAP
ENDCHAR
STARTCHAR 012
ENCODING 12
SWIDTH 72 0
DWIDTH 1 0
BBX 0 0 0 0
BITMAP
ENDCHAR
STARTCHAR 013
ENCODING 13
SWIDTH 432 0
DWIDTH 6 0
BBX 0 0 0 0
BITMAP
ENDCHAR
STARTCHAR 014
ENCODING 14
SWIDTH 72 0
DWIDTH 1 0
BBX 0 0 0 0
BITMAP
ENDCHAR
STARTCHAR 015
ENCODING 15
SWIDTH 72 0
DWIDTH 1 0
BBX 0 0 0 0
BITMAP
ENDCHAR
STARTCHAR 016
ENCODING 16
SWIDTH 72 0
DWIDTH 1 0
BBX 0 0 0 0
BITMAP
ENDCHAR
STARTCHAR 017
ENCODING 17
SWIDTH 72 0
DWIDTH 1 0
BBX 0 0 0 0
BITMAP
ENDCHAR
STARTCHAR 018
ENCODING 18
SWIDTH 72 0
DWIDTH 1 0
BBX 0 0 0 0
BITMAP
ENDCHAR
STARTCHAR 019
ENCODING 19
SWIDTH 72 0
DWIDTH 1 0
BBX 0 0 0 0
BITMAP
ENDCHAR
STARTCHAR 020
ENCODING 20
SWIDTH 72 0
DWIDTH 1 0
BBX 0 0 0 0
BITMAP
ENDCHAR
STARTCHAR 021
ENCODING 21
SWIDTH 72 0
DWIDTH 1 0
BBX 0 0 0 0
BITMAP
ENDCHAR
STARTCHAR 022
ENCODING 22
SWIDTH 72 0
DWIDTH 1 0
BBX 0 0 0 0
BITMAP
ENDCHAR
STARTCHAR 023
ENCODING 23
SWIDTH 72 0
DWIDTH 1 0
BBX 0 0 0 0
BITMAP
ENDCHAR
STARTCHAR 024
ENCODING 24
SWIDTH 72 0
DWIDTH 1 0
BBX 0 0 0 0
BITMAP
ENDCHAR
STARTCHAR 025
ENCODING 25
SWIDTH 72 0
DWIDTH 1 0
BBX 0 0 0 0
BITMAP
ENDCHAR
STARTCHAR 026
ENCODING 26
SWIDTH 72 0
DWIDTH 1 0
BBX 0 0 0 0
BITMAP
ENDCHAR
STARTCHAR 027
ENCODING 27
SWIDTH 72 0
DWIDTH 1 0
BBX 0 0 0 0
BITMAP
ENDCHAR
STARTCHAR 028
ENCODING 28
SWIDTH 72 0
DWIDTH 1 0
BBX 0 0 0 0
BITMAP
ENDCHAR
STARTCHAR 029
ENCODING 29
SWIDTH 72 0
DWIDTH 1 0
BBX 0 0 0 0
BITMAP
ENDCHAR
STARTCHAR 030
ENCODING 30
SWIDTH 72 0
DWIDTH 1 0
BBX 0 0 0 0
BITMAP
ENDCHAR
STARTCHAR 031
ENCODING 31
SWIDTH 72 0
DWIDTH 1 0
BBX 0 0 0 0
BITMAP
ENDCHAR
STARTCHAR 032
ENCODING 32
SWIDTH 432 0
DWIDTH 6 0
BBX 0 0 0 0
BITMAP
ENDCHAR
STARTCHAR 033
ENCODING 33
SWIDTH 432 0
DWIDTH 6 0
BBX 3 18 2 0
BITMAP
C0
C0
C0
C0
C0
C0
C0
C0
C0
C0
C0
C0
00
00
00
C0
E0
C0
ENDCHAR
STARTCHAR 034
ENCODING 34
SWIDTH 576 0
DWIDTH 8 0
BBX 5 6 2 13
BITMAP
D8
D8
D8
D8
D8
D8
ENDCHAR
STARTCHAR 035
ENCODING 35
SWIDTH 1080 0
DWIDTH 15 0
BBX 14 18 1 0
BITMAP
0318
0318
0318
0630
0630
7FFC
7FFC
0C60
0C60
0C60
18C0
FFF8
FFF8
18C0
18C0
3180
3180
3180
ENDCHAR
STARTCHAR 036
ENCODING 36
SWIDTH 1008 0
DWIDTH 14 0
BBX 12 22 1 -2
BITMAP
0600
0600
1F80
7FE0
6060
C030
C030
C030
6000
7800
1E00
0780
01E0
0060
0030
C030
C030
6060
7FE0
1F80
0600
0600
ENDCHAR
STARTCHAR 037
ENCODING 37
SWIDTH 1296 0
DWIDTH 18 0
BBX 16 18 1 0
BITMAP
3800
7C00
C608
C618
C630
C620
7C60
38C0
0080
0180
031C
023E
0663
0C63
0863
1863
003E
001C
ENDCHAR
STARTCHAR 038
ENCODING 38
SWIDTH 1152 0
DWIDTH 16 0
BBX 14 18 1 0
BITMAP
0F00
1F80
30C0
30C0
30C0
30C0
3180
1F00
1E00
3E00
7718
6398
C1D8
C0F8
6070
70F8
3FD8
0F9C
ENDCHAR
STARTCHAR 039
ENCODING 39
SWIDTH 288 0
DWIDTH 4 0
BBX 2 6 1 13
BITMAP
C0
C0
C0
C0
C0
C0
ENDCHAR
STARTCHAR 040
ENCODING 40
SWIDTH 648 0
DWIDTH 9 0
BBX 6 25 2 -6
BITMAP
0C
18
30
30
60
60
E0
C0
C0
C0
C0
C0
C0
C0
C0
C0
C0
E0
60
60
30
30
18
0C
04
ENDCHAR
STARTCHAR 041
ENCODING 41
SWIDTH 648 0
DWIDTH 9 0
BBX 7 25 0 -6
BITMAP
E0
30
30
18
18
0C
0C
0C
0E
06
06
06
06
06
06
0E
0C
0C
0C
18
18
30
30
60
C0
ENDCHAR
STARTCHAR 042
ENCODING 42
SWIDTH 792 0
DWIDTH 11 0
BBX 10 10 0 8
BITMAP
0C00
0C00
0C00
EDC0
FFC0
1E00
1E00
3300
7380
2100
ENDCHAR
STARTCHAR 043
ENCODING 43
SWIDTH 1008 0
DWIDTH 14 0
BBX 12 12 1 3
BITMAP
0600
0600
0600
0600
0600
FFF0
FFF0
0600
0600
0600
0600
0600
ENDCHAR
STARTCHAR 044
ENCODING 44
SWIDTH 360 0
DWIDTH 5 0
BBX 4 6 0 -3
BITMAP
30
30
30
60
60
C0
ENDCHAR
STARTCHAR 045
ENCODING 45
SWIDTH 504 0
DWIDTH 7 0
BBX 6 2 0 6
BITMAP
FC
FC
ENDCHAR
STARTCHAR 046
ENCODING 46
SWIDTH 432 0
DWIDTH 6 0
BBX 3 3 2 0
BITMAP
40
E0
40
ENDCHAR
STARTCHAR 047
ENCODING 47
SWIDTH 720 0
DWIDTH 10 0
BBX 8 20 1 -2
BITMAP
03
03
03
06
06
06
0C
0C
0C
18
18
30
30
30
60
60
60
C0
C0
C0
ENDCHAR
STARTCHAR 048
ENCODING 48
SWIDTH 1008 0
DWIDTH 14 0
BBX 11 18 1 0
BITMAP
1F00
7FC0
60C0
C060
C060
C060
C060
C060
C060
C060
C060
C060
C060
C060
C060
60C0
7FC0
1F00
ENDCHAR
STARTCHAR 049
ENCODING 49
SWIDTH 1008 0
DWIDTH 14 0
BBX 7 18 2 0
BITMAP
0E
3E
F6
C6
06
06
06
06
06
06
06
06
06
06
06
06
06
06
ENDCHAR
STARTCHAR 050
ENCODING 50
SWIDTH 1008 0
DWIDTH 14 0
BBX 11 18 1 0
BITMAP
1F00
7FC0
60C0
C060
C060
0060
0060
00C0
01C0
0380
0700
0E00
1C00
3800
7000
E000
FFE0
FFE0
ENDCHAR
STARTCHAR 051
ENCODING 51
SWIDTH 1008 0
DWIDTH 14 0
BBX 11 18 1 0
BITMAP
1F00
7FC0
60C0
C060
C060
0060
00E0
01C0
1F80
1F80
01C0
00E0
0060
C060
C060
60C0
7FC0
1F00
ENDCHAR
STARTCHAR 052
ENCODING 52
SWIDTH 1008 0
DWIDTH 14 0
BBX 12 18 1 0
BITMAP
01C0
01C0
03C0
07C0
06C0
0CC0
1CC0
18C0
30C0
30C0
60C0
E0C0
FFF0
FFF0
00C0
00C0
00C0
00C0
ENDCHAR
STARTCHAR 053
ENCODING 53
SWIDTH 1008 0
DWIDTH 14 0
BBX 11 18 1 0
BITMAP
7FE0
7FE0
6000
6000
E000
C000
DE00
FF80
E1C0
00C0
0060
0060
0060
C060
C0C0
61C0
7F80
1E00
ENDCHAR
STARTCHAR 054
ENCODING 54
SWIDTH 1008 0
DWIDTH 14 0
BBX 11 18 1 0
BITMAP
0700
1F00
3800
3000
6000
6000
CF00
DFC0
F0C0
E060
C060
C060
C060
C060
C060
60C0
7FC0
1F00
ENDCHAR
STARTCHAR 055
ENCODING 55
SWIDTH 1008 0
DWIDTH 14 0
BBX 12 18 1 0
BITMAP
FFF0
FFF0
0060
0060
00C0
00C0
0180
0180
0300
0300
0600
0600
0C00
0C00
1800
1800
3000
3000
ENDCHAR
STARTCHAR 056
ENCODING 56
SWIDTH 1008 0
DWIDTH 14 0
BBX 11 18 1 0
BITMAP
1F00
7FC0
60C0
C060
C060
C060
C060
60C0
3F80
3F80
60C0
C060
C060
C060
C060
60C0
7FC0
1F00
ENDCHAR
STARTCHAR 057
ENCODING 57
SWIDTH 1008 0
DWIDTH 14 0
BBX 11 18 1 0
BITMAP
1F00
7FC0
60C0
C060
C060
C060
C060
C060
C0E0
61E0
7F60
1E60
00E0
00C0
01C0
0780
3F00
3C00
ENDCHAR
STARTCHAR 058
ENCODING 58
SWIDTH 432 0
DWIDTH 6 0
BBX 3 13 2 0
BITMAP
40
E0
40
00
00
00
00
00
00
00
40
E0
40
ENDCHAR
STARTCHAR 059
ENCODING 59
SWIDTH 360 0
DWIDTH 5 0
BBX 4 16 0 -3
BITMAP
20
70
20
00
00
00
00
00
00
00
30
30
30
60
60
C0
ENDCHAR
STARTCHAR 060
ENCODING 60
SWIDTH 936 0
DWIDTH 13 0
BBX 10 11 1 2
BITMAP
0040
01C0
0780
1E00
7800
E000
7800
1E00
0780
01C0
0040
ENDCHAR
STARTCHAR 061
ENCODING 61
SWIDTH 1008 0
DWIDTH 14 0
BBX 10 7 2 5
BITMAP
FFC0
FFC0
0000
0000
0000
FFC0
FFC0
ENDCHAR
STARTCHAR 062
ENCODING 62
SWIDTH 936 0
DWIDTH 13 0
BBX 10 11 1 2
BITMAP
8000
E000
7800
1E00
0780
01C0
0780
1E00
7800
E000
8000
ENDCHAR
STARTCHAR 063
ENCODING 63
SWIDTH 864 0
DWIDTH 12 0
BBX 10 18 1 0
BITMAP
3E00
7F80
E180
C1C0
00C0
01C0
0180
0380
0700
0E00
0C00
1C00
1C00
0000
0000
0800
1C00
0800
ENDCHAR
STARTCHAR 064
ENCODING 64
SWIDTH 1584 0
DWIDTH 22 0
BBX 20 22 1 -5
BITMAP
00FC00
07FF00
0F03C0
1C00C0
380060
307860
60FC30
61CC30
618C30
430C30
C30C30
C30C30
C30C30
C30C30
631C60
63FFE0
61E780
300000
380000
1E0400
0FFC00
01F800
ENDCHAR
STARTCHAR 065
ENCODING 65
SWIDTH 1152 0
DWIDTH 16 0
BBX 14 18 1 0
BITMAP
0300
0300
0300
0780
0780
0FC0
0CC0
0CC0
1CE0
1860
3870
3FF0
3FF0
7038
6018
E01C
C00C
C00C
ENDCHAR
STARTCHAR 066
ENCODING 66
SWIDTH 1080 0
DWIDTH 15 0
BBX 12 18 2 0
BITMAP
FF80
FFE0
C060
C030
C030
C030
C030
C060
FFC0
FFC0
C060
C030
C030
C030
C030
C060
FFE0
FF80
ENDCHAR
STARTCHAR 067
ENCODING 67
SWIDTH 1152 0
DWIDTH 16 0
BBX 14 18 1 0
BITMAP
07C0
1FF0
3838
3018
600C
600C
C000
C000
C000
C000
C000
C000
600C
600C
3018
3838
1FF0
07C0
ENDCHAR
STARTCHAR 068
ENCODING 68
SWIDTH 1152 0
DWIDTH 16 0
BBX 13 18 2 0
BITMAP
FF00
FFC0
C0E0
C030
C030
C018
C018
C018
C018
C018
C018
C018
C018
C030
C030
C0E0
FFC0
FF00
ENDCHAR
STARTCHAR 069
ENCODING 69
SWIDTH 1008 0
DWIDTH 14 0
BBX 11 18 2 0
BITMAP
FFE0
FFE0
C000
C000
C000
C000
C000
C000
FFC0
FFC0
C000
C000
C000
C000
C000
C000
FFE0
FFE0
ENDCHAR
STARTCHAR 070
ENCODING 70
SWIDTH 1008 0
DWIDTH 14 0
BBX 11 18 2 0
BITMAP
FFE0
FFE0
C000
C000
C000
C000
C000
C000
FFC0
FFC0
C000
C000
C000
C000
C000
C000
C000
C000
ENDCHAR
STARTCHAR 071
ENCODING 71
SWIDTH 1224 0
DWIDTH 17 0
BBX 14 18 1 0
BITMAP
07C0
1FF0
3838
600C
600C
C000
C000
C000
C000
C0FC
C0FC
C00C
C00C
600C
600C
381C
1FF8
07E0
ENDCHAR
STARTCHAR 072
ENCODING 72
SWIDTH 1224 0
DWIDTH 17 0
BBX 13 18 2 0
BITMAP
C018
C018
C018
C018
C018
C018
C018
C018
FFF8
FFF8
C018
C018
C018
C018
C018
C018
C018
C018
ENDCHAR
STARTCHAR 073
ENCODING 73
SWIDTH 360 0
DWIDTH 5 0
BBX 2 18 2 0
BITMAP
C0
C0
C0
C0
C0
C0
C0
C0
C0
C0
C0
C0
C0
C0
C0
C0
C0
C0
ENDCHAR
STARTCHAR 074
ENCODING 74
SWIDTH 1008 0
DWIDTH 14 0
BBX 11 18 2 0
BITMAP
0060
0060
0060
0060
0060
0060
0060
0060
0060
0060
0060
0060
0060
C060
C060
E0C0
7FC0
3F00
ENDCHAR
STARTCHAR 075
ENCODING 75
SWIDTH 1152 0
DWIDTH 16 0
BBX 13 18 2 0
BITMAP
C038
C070
C0E0
C1C0
C380
C700
CE00
DC00
FC00
FE00
E700
C300
C180
C1C0
C0E0
C060
C070
C038
ENDCHAR
STARTCHAR 076
ENCODING 76
SWIDTH 1008 0
DWIDTH 14 0
BBX 11 18 2 0
BITMAP
C000
C000
C000
C000
C000
C000
C000
C000
C000
C000
C000
C000
C000
C000
C000
C000
FFE0
FFE0
ENDCHAR
STARTCHAR 077
ENCODING 77
SWIDTH 1440 0
DWIDTH 20 0
BBX 17 18 2 0
BITMAP
E00180
F00380
F00380
F00780
D80780
D80780
DC0D80
CC0D80
CC1D80
C61980
C61980
C73180
C33180
C37180
C1E180
C1E180
C1C180
C0C180
ENDCHAR
STARTCHAR 078
ENCODING 78
SWIDTH 1224 0
DWIDTH 17 0
BBX 14 18 2 0
BITMAP
C00C
E00C
F00C
F80C
D80C
DC0C
CE0C
C60C
C70C
C38C
C18C
C1CC
C0EC
C06C
C07C
C03C
C01C
C00C
ENDCHAR
STARTCHAR 079
ENCODING 79
SWIDTH 1296 0
DWIDTH 18 0
BBX 15 18 2 0
BITMAP
07C0
1FF0
3838
600C
600C
C006
C006
C006
C006
C006
C006
C006
C006
600C
600C
3838
1FF0
07C0
ENDCHAR
STARTCHAR 080
ENCODING 80
SWIDTH 1152 0
DWIDTH 16 0
BBX 13 18 2 0
BITMAP
FF80
FFE0
C070
C030
C018
C018
C018
C030
C070
FFE0
FF80
C000
C000
C000
C000
C000
C000
C000
ENDCHAR
STARTCHAR 081
ENCODING 81
SWIDTH 1296 0
DWIDTH 18 0
BBX 15 21 2 -3
BITMAP
07C0
1FF0
3838
301C
600C
600C
C006
C006
C006
C006
C006
C006
600C
600C
301C
3838
1FF0
07F0
0038
001C
000C
ENDCHAR
STARTCHAR 082
ENCODING 82
SWIDTH 1080 0
DWIDTH 15 0
BBX 13 18 2 0
BITMAP
FF00
FFC0
C0E0
C060
C030
C030
C030
C030
C060
FFC0
FF80
C0C0
C0C0
C060
C060
C030
C030
C018
ENDCHAR
STARTCHAR 083
ENCODING 83
SWIDTH 1080 0
DWIDTH 15 0
BBX 12 18 2 0
BITMAP
1F80
7FE0
6060
C030
C030
C000
6000
7800
1E00
0780
01E0
0060
0030
C030
C030
6060
7FE0
1F80
ENDCHAR
STARTCHAR 084
ENCODING 84
SWIDTH 1080 0
DWIDTH 15 0
BBX 12 18 2 0
BITMAP
FFF0
FFF0
0600
0600
0600
0600
0600
0600
0600
0600
0600
0600
0600
0600
0600
0600
0600
0600
ENDCHAR
STARTCHAR 085
ENCODING 85
SWIDTH 1080 0
DWIDTH 15 0
BBX 12 18 2 0
BITMAP
C030
C030
C030
C030
C030
C030
C030
C030
C030
C030
C030
C030
C030
C030
C030
6060
7FE0
1F80
ENDCHAR
STARTCHAR 086
ENCODING 86
SWIDTH 1152 0
DWIDTH 16 0
BBX 14 18 1 0
BITMAP
C00C
C00C
C00C
6018
6018
3030
3030
3030
1860
1860
0CC0
0CC0
0CC0
0780
0780
0300
0300
0300
ENDCHAR
STARTCHAR 087
ENCODING 87
SWIDTH 1584 0
DWIDTH 22 0
BBX 20 18 1 0
BITMAP
C06030
C06030
C06030
606060
60F060
60F060
30F0C0
30F0C0
3198C0
199980
199980
1B0D80
0F0D80
0F0F00
0E0700
060700
060600
040200
ENDCHAR
STARTCHAR 088
ENCODING 88
SWIDTH 1152 0
DWIDTH 16 0
BBX 16 18 0 0
BITMAP
E007
700E
300C
1818
1C38
0E70
0660
07E0
03C0
03C0
07E0
0660
0E70
1C38
1818
381C
700E
E007
ENDCHAR
STARTCHAR 089
ENCODING 89
SWIDTH 1080 0
DWIDTH 15 0
BBX 12 18 1 0
BITMAP
C030
C030
6060
6060
30C0
30C0
1980
1980
0F00
0F00
0F00
0600
0600
0600
0600
0600
0600
0600
ENDCHAR
STARTCHAR 090
ENCODING 90
SWIDTH 1080 0
DWIDTH 15 0
BBX 13 18 1 0
BITMAP
FFF8
FFF8
0070
0060
00E0
01C0
0180
0380
0700
0600
0E00
1C00
1800
3800
7000
6000
FFF8
FFF8
ENDCHAR
STARTCHAR 091
ENCODING 91
SWIDTH 504 0
DWIDTH 7 0
BBX 4 23 2 -4
BITMAP
F0
C0
C0
C0
C0
C0
C0
C0
C0
C0
C0
C0
C0
C0
C0
C0
C0
C0
C0
C0
C0
F0
F0
ENDCHAR
STARTCHAR 092
ENCODING 92
SWIDTH 720 0
DWIDTH 10 0
BBX 8 20 1 -2
BITMAP
C0
C0
C0
60
60
60
30
30
30
18
18
0C
0C
0C
06
06
06
03
03
03
ENDCHAR
STARTCHAR 093
ENCODING 93
SWIDTH 504 0
DWIDTH 7 0
BBX 4 23 0 -4
BITMAP
F0
30
30
30
30
30
30
30
30
30
30
30
30
30
30
30
30
30
30
30
30
F0
F0
ENDCHAR
STARTCHAR 094
ENCODING 94
SWIDTH 720 0
DWIDTH 10 0
BBX 8 9 1 9
BITMAP
18
18
3C
3C
66
66
66
C3
C3
ENDCHAR
STARTCHAR 095
ENCODING 95
SWIDTH 792 0
DWIDTH 11 0
BBX 11 2 0 -2
BITMAP
FFE0
FFE0
ENDCHAR
STARTCHAR 096
ENCODING 96
SWIDTH 576 0
DWIDTH 8 0
BBX 5 4 1 15
BITMAP
E0
60
30
38
ENDCHAR
STARTCHAR 097
ENCODING 97
SWIDTH 1008 0
DWIDTH 14 0
BBX 10 13 2 0
BITMAP
3F00
7F80
E1C0
C0C0
00C0
3FC0
7FC0
E0C0
C0C0
C0C0
E1C0
7FC0
3EC0
ENDCHAR
STARTCHAR 098
ENCODING 98
SWIDTH 936 0
DWIDTH 13 0
BBX 10 19 2 0
BITMAP
C000
C000
C000
C000
C000
C000
DC00
FF00
E380
C180
C0C0
C0C0
C0C0
C0C0
C0C0
C180
E380
FF00
DC00
ENDCHAR
STARTCHAR 099
ENCODING 99
SWIDTH 864 0
DWIDTH 12 0
BBX 10 13 1 0
BITMAP
0E00
3F80
71C0
6080
C000
C000
C000
C000
C000
6080
71C0
3F80
0E00
ENDCHAR
STARTCHAR 100
ENCODING 100
SWIDTH 936 0
DWIDTH 13 0
BBX 10 19 1 0
BITMAP
00C0
00C0
00C0
00C0
00C0
00C0
0EC0
3FC0
70C0
60C0
C0C0
C0C0
C0C0
C0C0
C0C0
60C0
71C0
3FC0
0EC0
ENDCHAR
STARTCHAR 101
ENCODING 101
SWIDTH 936 0
DWIDTH 13 0
BBX 11 13 1 0
BITMAP
0E00
3F80
71C0
60C0
C060
FFE0
FFE0
C000
C000
6080
71C0
3F80
0E00
ENDCHAR
STARTCHAR 102
ENCODING 102
SWIDTH 648 0
DWIDTH 9 0
BBX 8 19 1 0
BITMAP
0F
1F
38
30
30
30
FE
FE
30
30
30
30
30
30
30
30
30
30
30
ENDCHAR
STARTCHAR 103
ENCODING 103
SWIDTH 1008 0
DWIDTH 14 0
BBX 11 18 1 -5
BITMAP
0F60
3FE0
70E0
6060
C060
C060
C060
C060
C060
6060
70E0
3FE0
0F60
0060
C060
60C0
7FC0
1F00
ENDCHAR
STARTCHAR 104
ENCODING 104
SWIDTH 936 0
DWIDTH 13 0
BBX 10 19 2 0
BITMAP
C000
C000
C000
C000
C000
C000
CF00
FF80
F1C0
C0C0
C0C0
C0C0
C0C0
C0C0
C0C0
C0C0
C0C0
C0C0
C0C0
ENDCHAR
STARTCHAR 105
ENCODING 105
SWIDTH 360 0
DWIDTH 5 0
BBX 2 18 2 0
BITMAP
C0
C0
C0
00
00
C0
C0
C0
C0
C0
C0
C0
C0
C0
C0
C0
C0
C0
ENDCHAR
STARTCHAR 106
ENCODING 106
SWIDTH 360 0
DWIDTH 5 0
BBX 4 23 0 -5
BITMAP
30
30
30
00
00
30
30
30
30
30
30
30
30
30
30
30
30
30
30
30
70
F0
E0
ENDCHAR
STARTCHAR 107
ENCODING 107
SWIDTH 936 0
DWIDTH 13 0
BBX 10 19 2 0
BITMAP
C000
C000
C000
C000
C000
C000
C1C0
C380
C700
CE00
DC00
F800
FC00
E600
C600
C300
C180
C180
C0C0
ENDCHAR
STARTCHAR 108
ENCODING 108
SWIDTH 432 0
DWIDTH 6 0
BBX 2 19 2 0
BITMAP
C0
C0
C0
C0
C0
C0
C0
C0
C0
C0
C0
C0
C0
C0
C0
C0
C0
C0
C0
ENDCHAR
STARTCHAR 109
ENCODING 109
SWIDTH 1512 0
DWIDTH 21 0
BBX 18 13 2 0
BITMAP
DF1F00
FFBF80
E1E1C0
C0C0C0
C0C0C0
C0C0C0
C0C0C0
C0C0C0
C0C0C0
C0C0C0
C0C0C0
C0C0C0
C0C0C0
ENDCHAR
STARTCHAR 110
ENCODING 110
SWIDTH 936 0
DWIDTH 13 0
BBX 10 13 2 0
BITMAP
DF00
FF80
E1C0
C0C0
C0C0
C0C0
C0C0
C0C0
C0C0
C0C0
C0C0
C0C0
C0C0
ENDCHAR
STARTCHAR 111
ENCODING 111
SWIDTH 1008 0
DWIDTH 14 0
BBX 11 13 2 0
BITMAP
0E00
3F80
71C0
60C0
C060
C060
C060
C060
C060
60C0
71C0
3F80
0E00
ENDCHAR
STARTCHAR 112
ENCODING 112
SWIDTH 936 0
DWIDTH 13 0
BBX 10 18 2 -5
BITMAP
DC00
FF00
E380
C180
C0C0
C0C0
C0C0
C0C0
C0C0
C180
E380
FF00
DC00
C000
C000
C000
C000
C000
ENDCHAR
STARTCHAR 113
ENCODING 113
SWIDTH 936 0
DWIDTH 13 0
BBX 10 18 2 -5
BITMAP
0EC0
3FC0
71C0
60C0
C0C0
C0C0
C0C0
C0C0
C0C0
60C0
71C0
3FC0
0EC0
00C0
00C0
00C0
00C0
00C0
ENDCHAR
STARTCHAR 114
ENCODING 114
SWIDTH 720 0
DWIDTH 10 0
BBX 7 13 2 0
BITMAP
DE
FE
E0
C0
C0
C0
C0
C0
C0
C0
C0
C0
C0
ENDCHAR
STARTCHAR 115
ENCODING 115
SWIDTH 936 0
DWIDTH 13 0
BBX 10 13 2 0
BITMAP
1E00
7F80
6180
C0C0
E000
7C00
1F00
0380
00C0
C0C0
6180
7F80
1E00
ENDCHAR
STARTCHAR 116
ENCODING 116
SWIDTH 576 0
DWIDTH 8 0
BBX 7 16 0 0
BITMAP
30
30
30
FE
FE
30
30
30
30
30
30
30
30
18
1E
06
ENDCHAR
STARTCHAR 117
ENCODING 117
SWIDTH 936 0
DWIDTH 13 0
BBX 10 13 2 0
BITMAP
C0C0
C0C0
C0C0
C0C0
C0C0
C0C0
C0C0
C0C0
C0C0
C0C0
E1C0
7FC0
3EC0
ENDCHAR
STARTCHAR 118
ENCODING 118
SWIDTH 864 0
DWIDTH 12 0
BBX 12 13 0 0
BITMAP
E070
6060
6060
30C0
30C0
30C0
1980
1980
1980
0F00
0F00
0600
0600
ENDCHAR
STARTCHAR 119
ENCODING 119
SWIDTH 1368 0
DWIDTH 19 0
BBX 19 13 0 0
BITMAP
E0E0E0
60E0C0
60E0C0
31B180
31B180
31B180
1B1B00
1B1B00
1B1B00
0F1E00
0E0E00
0E0E00
040400
ENDCHAR
STARTCHAR 120
ENCODING 120
SWIDTH 864 0
DWIDTH 12 0
BBX 10 13 1 0
BITMAP
C0C0
6180
6180
3300
1E00
0C00
0C00
1E00
3300
3300
6180
6180
C0C0
ENDCHAR
STARTCHAR 121
ENCODING 121
SWIDTH 864 0
DWIDTH 12 0
BBX 12 18 0 -5
BITMAP
E070
6060
6060
30C0
30C0
30C0
1980
1980
1980
0F00
0F00
0600
0600
0600
0C00
0C00
7800
7000
ENDCHAR
STARTCHAR 122
ENCODING 122
SWIDTH 936 0
DWIDTH 13 0
BBX 10 13 2 0
BITMAP
FFC0
FFC0
00C0
0180
0300
0600
0C00
0C00
1800
3000
6000
FFC0
FFC0
ENDCHAR
STARTCHAR 123
ENCODING 123
SWIDTH 576 0
DWIDTH 8 0
BBX 7 23 1 -4
BITMAP
0E
18
30
30
30
30
30
30
30
70
E0
E0
70
30
30
30
30
30
30
30
30
18
0E
ENDCHAR
STARTCHAR 124
ENCODING 124
SWIDTH 432 0
DWIDTH 6 0
BBX 2 21 2 -3
BITMAP
C0
C0
C0
C0
C0
C0
C0
C0
C0
C0
C0
C0
C0
C0
C0
C0
C0
C0
C0
C0
C0
ENDCHAR
STARTCHAR 125
ENCODING 125
SWIDTH 576 0
DWIDTH 8 0
BBX 7 23 0 -4
BITMAP
E0
30
18
18
18
18
18
18
18
1C
0E
0E
1C
18
18
18
18
18
18
18
18
30
E0
ENDCHAR
STARTCHAR 126
ENCODING 126
SWIDTH 1224 0
DWIDTH 17 0
BBX 13 5 2 5
BITMAP
3C08
7E18
C718
C3F0
C0E0
ENDCHAR
STARTCHAR 127
ENCODING 127
SWIDTH 72 0
DWIDTH 1 0
BBX 0 0 0 0
BITMAP
ENDCHAR
STARTCHAR 128
ENCODING 128
SWIDTH 72 0
DWIDTH 1 0
BBX 0 0 0 0
BITMAP
ENDCHAR
STARTCHAR 129
ENCODING 129
SWIDTH 72 0
DWIDTH 1 0
BBX 0 0 0 0
BITMAP
ENDCHAR
STARTCHAR 130
ENCODING 130
SWIDTH 72 0
DWIDTH 1 0
BBX 0 0 0 0
BITMAP
ENDCHAR
STARTCHAR 131
ENCODING 131
SWIDTH 72 0
DWIDTH 1 0
BBX 0 0 0 0
BITMAP
ENDCHAR
STARTCHAR 132
ENCODING 132
SWIDTH 72 0
DWIDTH 1 0
BBX 0 0 0 0
BITMAP
ENDCHAR
STARTCHAR 133
ENCODING 133
SWIDTH 72 0
DWIDTH 1 0
BBX 0 0 0 0
BITMAP
ENDCHAR
STARTCHAR 134
ENCODING 134
SWIDTH 72 0
DWIDTH 1 0
BBX 0 0 0 0
BITMAP
ENDCHAR
STARTCHAR 135
ENCODING 135
SWIDTH 72 0
DWIDTH 1 0
BBX 0 0 0 0
BITMAP
ENDCHAR
STARTCHAR 136
ENCODING 136
SWIDTH 72 0
DWIDTH 1 0
BBX 0 0 0 0
BITMAP
ENDCHAR
STARTCHAR 137
ENCODING 137
SWIDTH 72 0
DWIDTH 1 0
BBX 0 0 0 0
BITMAP
ENDCHAR
STARTCHAR 138
ENCODING 138
SWIDTH 72 0
DWIDTH 1 0
BBX 0 0 0 0
BITMAP
ENDCHAR
STARTCHAR 139
ENCODING 139
SWIDTH 72 0
DWIDTH 1 0
BBX 0 0 0 0
BITMAP
ENDCHAR
STARTCHAR 140
ENCODING 140
SWIDTH 72 0
DWIDTH 1 0
BBX 0 0 0 0
BITMAP
ENDCHAR
STARTCHAR 141
ENCODING 141
SWIDTH 72 0
DWIDTH 1 0
BBX 0 0 0 0
BITMAP
ENDCHAR
STARTCHAR 142
ENCODING 142
SWIDTH 72 0
DWIDTH 1 0
BBX 0 0 0 0
BITMAP
ENDCHAR
STARTCHAR 143
ENCODING 143
SWIDTH 72 0
DWIDTH 1 0
BBX 0 0 0 0
BITMAP
ENDCHAR
STARTCHAR 144
ENCODING 144
SWIDTH 72 0
DWIDTH 1 0
BBX 0 0 0 0
BITMAP
ENDCHAR
STARTCHAR 145
ENCODING 145
SWIDTH 72 0
DWIDTH 1 0
BBX 0 0 0 0
BITMAP
ENDCHAR
STARTCHAR 146
ENCODING 146
SWIDTH 72 0
DWIDTH 1 0
BBX 0 0 0 0
BITMAP
ENDCHAR
STARTCHAR 147
ENCODING 147
SWIDTH 72 0
DWIDTH 1 0
BBX 0 0 0 0
BITMAP
ENDCHAR
STARTCHAR 148
ENCODING 148
SWIDTH 72 0
DWIDTH 1 0
BBX 0 0 0 0
BITMAP
ENDCHAR
STARTCHAR 149
ENCODING 149
SWIDTH 72 0
DWIDTH 1 0
BBX 0 0 0 0
BITMAP
ENDCHAR
STARTCHAR 150
ENCODING 150
SWIDTH 72 0
DWIDTH 1 0
BBX 0 0 0 0
BITMAP
ENDCHAR
STARTCHAR 151
ENCODING 151
SWIDTH 72 0
DWIDTH 1 0
BBX 0 0 0 0
BITMAP
ENDCHAR
STARTCHAR 152
ENCODING 152
SWIDTH 72 0
DWIDTH 1 0
BBX 0 0 0 0
BITMAP
ENDCHAR
STARTCHAR 153
ENCODING 153
SWIDTH 72 0
DWIDTH 1 0
BBX 0 0 0 0
BITMAP
ENDCHAR
STARTCHAR 154
ENCODING 154
SWIDTH 72 0
DWIDTH 1 0
BBX 0 0 0 0
BITMAP
ENDCHAR
STARTCHAR 155
ENCODING 155
SWIDTH 72 0
DWIDTH 1 0
BBX 0 0 0 0
BITMAP
ENDCHAR
STARTCHAR 156
ENCODING 156
SWIDTH 72 0
DWIDTH 1 0
BBX 0 0 0 0
BITMAP
ENDCHAR
STARTCHAR 157
ENCODING 157
SWIDTH 72 0
DWIDTH 1 0
BBX 0 0 0 0
BITMAP
ENDCHAR
STARTCHAR 158
ENCODING 158
SWIDTH 72 0
DWIDTH 1 0
BBX 0 0 0 0
BITMAP
ENDCHAR
STARTCHAR 159
ENCODING 159
SWIDTH 72 0
DWIDTH 1 0
BBX 0 0 0 0
BITMAP
ENDCHAR
STARTCHAR 160
ENCODING 160
SWIDTH 432 0
DWIDTH 6 0
BBX 0 0 0 0
BITMAP
ENDCHAR
STARTCHAR 161
ENCODING 161
SWIDTH 432 0
DWIDTH 6 0
BBX 2 17 2 -4
BITMAP
C0
C0
C0
00
00
C0
C0
C0
C0
C0
C0
C0
C0
C0
C0
C0
C0
ENDCHAR
STARTCHAR 162
ENCODING 162
SWIDTH 1008 0
DWIDTH 14 0
BBX 12 19 1 -3
BITMAP
0600
0600
0600
0F80
3FC0
70E0
6060
6070
C000
C000
C000
6000
6070
70E0
3FC0
1F80
0600
0600
0600
ENDCHAR
STARTCHAR 163
ENCODING 163
SWIDTH 1080 0
DWIDTH 15 0
BBX 13 18 1 0
BITMAP
0FE0
1FF0
3838
3018
3018
3000
3000
3000
FF80
FF80
3000
3000
3000
3000
3000
6000
FFF8
FFF8
ENDCHAR
STARTCHAR 164
ENCODING 164
SWIDTH 1296 0
DWIDTH 18 0
BBX 16 15 1 0
BITMAP
47E2
EFF7
7C3E
381C
700E
6006
6006
6006
6006
6006
700E
381C
7C3E
EFF7
47E2
ENDCHAR
STARTCHAR 165
ENCODING 165
SWIDTH 936 0
DWIDTH 13 0
BBX 13 18 0 0
BITMAP
E038
6030
3060
3060
18C0
18C0
0D80
0D80
7FF0
7FF0
0700
0700
7FF0
7FF0
0700
0700
0700
0700
ENDCHAR
STARTCHAR 166
ENCODING 166
SWIDTH 432 0
DWIDTH 6 0
BBX 2 21 2 -3
BITMAP
C0
C0
C0
C0
C0
C0
C0
C0
C0
C0
00
00
C0
C0
C0
C0
C0
C0
C0
C0
C0
ENDCHAR
STARTCHAR 167
ENCODING 167
SWIDTH 1080 0
DWIDTH 15 0
BBX 13 24 1 -6
BITMAP
0F80
3FE0
7070
6030
6030
6018
7000
3E00
7FC0
E3E0
C070
C038
E018
7038
7C30
1FF0
03E0
0070
0030
C030
E030
7070
7FE0
1F80
ENDCHAR
STARTCHAR 168
ENCODING 168
SWIDTH 720 0
DWIDTH 10 0
BBX 8 3 1 15
BITMAP
63
E7
63
ENDCHAR
STARTCHAR 169
ENCODING 169
SWIDTH 1440 0
DWIDTH 20 0
BBX 18 18 1 0
BITMAP
03F000
0FFC00
1C0E00
300300
61E180
63F180
C618C0
C618C0
C600C0
C600C0
C618C0
C618C0
63F180
61E180
300300
1C0E00
0FFC00
03F000
ENDCHAR
STARTCHAR 170
ENCODING 170
SWIDTH 792 0
DWIDTH 11 0
BBX 7 10 2 8
BITMAP
7C
FE
C6
06
7E
FE
C6
C6
FE
7E
ENDCHAR
STARTCHAR 171
ENCODING 171
SWIDTH 864 0
DWIDTH 12 0
BBX 10 10 1 2
BITMAP
18C0
3180
6300
6300
C600
C600
6300
6300
3180
18C0
ENDCHAR
STARTCHAR 172
ENCODING 172
SWIDTH 1008 0
DWIDTH 14 0
BBX 10 5 2 5
BITMAP
FFC0
FFC0
01C0
01C0
01C0
ENDCHAR
STARTCHAR 173
ENCODING 173
SWIDTH 504 0
DWIDTH 7 0
BBX 6 2 0 6
BITMAP
FC
FC
ENDCHAR
STARTCHAR 174
ENCODING 174
SWIDTH 1440 0
DWIDTH 20 0
BBX 18 18 1 0
BITMAP
03F000
0FFC00
1C0E00
300300
67E180
67F180
C618C0
C618C0
C618C0
C7F0C0
C7F0C0
C618C0
661980
661B80
300300
1C0E00
0FFC00
03F000
ENDCHAR
STARTCHAR 175
ENCODING 175
SWIDTH 792 0
DWIDTH 11 0
BBX 8 2 2 16
BITMAP
FF
FF
ENDCHAR
STARTCHAR 176
ENCODING 176
SWIDTH 648 0
DWIDTH 9 0
BBX 6 7 2 11
BITMAP
30
78
CC
CC
CC
78
30
ENDCHAR
STARTCHAR 177
ENCODING 177
SWIDTH 936 0
DWIDTH 13 0
BBX 10 15 2 0
BITMAP
0C00
0C00
0C00
0C00
0C00
FFC0
FFC0
0C00
0C00
0C00
0C00
0C00
0000
FFC0
FFC0
ENDCHAR
STARTCHAR 178
ENCODING 178
SWIDTH 648 0
DWIDTH 9 0
BBX 7 10 1 8
BITMAP
7C
FE
C6
06
0C
18
30
60
FE
FE
ENDCHAR
STARTCHAR 179
ENCODING 179
SWIDTH 648 0
DWIDTH 9 0
BBX 7 10 1 8
BITMAP
38
7C
C6
06
3C
3E
06
C6
7C
38
ENDCHAR
STARTCHAR 180
ENCODING 180
SWIDTH 576 0
DWIDTH 8 0
BBX 5 4 2 15
BITMAP
38
70
60
C0
ENDCHAR
STARTCHAR 181
ENCODING 181
SWIDTH 1008 0
DWIDTH 14 0
BBX 10 18 2 -5
BITMAP
C0C0
C0C0
C0C0
C0C0
C0C0
C0C0
C0C0
C0C0
C0C0
C0C0
E1C0
FFC0
DEC0
C000
C000
C000
C000
C000
ENDCHAR
STARTCHAR 182
ENCODING 182
SWIDTH 864 0
DWIDTH 12 0
BBX 9 18 1 0
BITMAP
1F80
7F80
7F80
FF80
FF80
FF80
FF80
FF80
FF80
7F80
3F80
0F80
0180
0180
0180
0180
0180
0180
ENDCHAR
STARTCHAR 183
ENCODING 183
SWIDTH 504 0
DWIDTH 7 0
BBX 3 3 2 7
BITMAP
40
E0
40
ENDCHAR
STARTCHAR 184
ENCODING 184
SWIDTH 432 0
DWIDTH 6 0
BBX 4 5 1 -5
BITMAP
40
F0
30
30
E0
ENDCHAR
STARTCHAR 185
ENCODING 185
SWIDTH 648 0
DWIDTH 9 0
BBX 5 10 1 8
BITMAP
18
F8
D8
18
18
18
18
18
18
18
ENDCHAR
STARTCHAR 186
ENCODING 186
SWIDTH 792 0
DWIDTH 11 0
BBX 9 10 1 8
BITMAP
1C00
7F00
6300
C180
C180
C180
C180
6300
7F00
1C00
ENDCHAR
STARTCHAR 187
ENCODING 187
SWIDTH 864 0
DWIDTH 12 0
BBX 10 10 1 2
BITMAP
C600
6300
3180
3180
18C0
18C0
3180
3180
6300
C600
ENDCHAR
STARTCHAR 188
ENCODING 188
SWIDTH 1296 0
DWIDTH 18 0
BBX 16 18 1 0
BITMAP
3800
F800
D818
1818
1830
1860
1860
18C0
18C6
198E
031E
031E
0636
0666
0C7F
187F
1806
0006
ENDCHAR
STARTCHAR 189
ENCODING 189
SWIDTH 1368 0
DWIDTH 19 0
BBX 17 18 1 0
BITMAP
380000
F80000
D81800
181800
183000
186000
186000
18C000
18DF00
19BF80
033180
030180
060300
060600
0C0C00
181800
183F80
003F80
ENDCHAR
STARTCHAR 190
ENCODING 190
SWIDTH 1368 0
DWIDTH 19 0
BBX 18 18 1 0
BITMAP
7C0000
FE0000
C60600
060600
3C0C00
3E1800
061800
C63000
FE3300
7C6700
00CF00
00CF00
019B00
01B300
033FC0
063FC0
060300
000300
ENDCHAR
STARTCHAR 191
ENCODING 191
SWIDTH 864 0
DWIDTH 12 0
BBX 10 18 1 -5
BITMAP
0400
0E00
0400
0000
0000
0C00
0C00
1C00
1800
3000
6000
E000
C000
C000
C1C0
E180
7F80
3E00
ENDCHAR
STARTCHAR 192
ENCODING 192
SWIDTH 1152 0
DWIDTH 16 0
BBX 14 23 1 0
BITMAP
00E0
00C0
0180
0300
0000
0300
0300
0300
0780
0780
0FC0
0CC0
0CC0
1CE0
1860
3870
3FF0
3FF0
7038
6018
E01C
C00C
C00C
ENDCHAR
STARTCHAR 193
ENCODING 193
SWIDTH 1152 0
DWIDTH 16 0
BBX 14 23 1 0
BITMAP
1C00
0C00
0600
0300
0000
0300
0300
0300
0780
0780
0FC0
0CC0
0CC0
1CE0
1860
3870
3FF0
3FF0
7038
6018
E01C
C00C
C00C
ENDCHAR
STARTCHAR 194
ENCODING 194
SWIDTH 1152 0
DWIDTH 16 0
BBX 14 22 1 0
BITMAP
0300
0780
0CC0
0000
0300
0300
0300
0780
0780
0FC0
0CC0
0CC0
1CE0
1860
3870
3FF0
3FF0
7038
6018
E01C
C00C
C00C
ENDCHAR
STARTCHAR 195
ENCODING 195
SWIDTH 1152 0
DWIDTH 16 0
BBX 14 22 1 0
BITMAP
0640
0FC0
0980
0000
0300
0300
0300
0780
0780
0FC0
0CC0
0CC0
1CE0
1860
3870
3FF0
3FF0
7038
6018
E01C
C00C
C00C
ENDCHAR
STARTCHAR 196
ENCODING 196
SWIDTH 1152 0
DWIDTH 16 0
BBX 14 23 1 0
BITMAP
0300
0480
0480
0300
0000
0300
0300
0300
0780
0780
0FC0
0CC0
0CC0
1CE0
1860
3870
3FF0
3FF0
7038
6018
E01C
C00C
C00C
ENDCHAR
STARTCHAR 197
ENCODING 197
SWIDTH 1152 0
DWIDTH 16 0
BBX 14 22 1 0
BITMAP
0840
1CE0
0840
0000
0300
0300
0300
0780
0780
0FC0
0CC0
0CC0
1CE0
1860
3870
3FF0
3FF0
7038
6018
E01C
C00C
C00C
ENDCHAR
STARTCHAR 198
ENCODING 198
SWIDTH 1656 0
DWIDTH 23 0
BBX 23 18 0 0
BITMAP
003FFC
003FFC
006C00
00EC00
00CC00
01CC00
018C00
030C00
070FF8
060FF8
0E0C00
0FFC00
1FFC00
380C00
300C00
700C00
600FFE
E00FFE
ENDCHAR
STARTCHAR 199
ENCODING 199
SWIDTH 1152 0
DWIDTH 16 0
BBX 14 23 1 -5
BITMAP
07C0
1FF0
3838
301C
600C
600C
C000
C000
C000
C000
C000
C000
600C
600C
301C
3838
1FF0
07C0
0300
0380
00C0
00C0
0380
ENDCHAR
STARTCHAR 200
ENCODING 200
SWIDTH 1008 0
DWIDTH 14 0
BBX 11 23 2 0
BITMAP
3800
1800
0C00
0600
0000
FFE0
FFE0
C000
C000
C000
C000
C000
C000
FFC0
FFC0
C000
C000
C000
C000
C000
C000
FFE0
FFE0
ENDCHAR
STARTCHAR 201
ENCODING 201
SWIDTH 1008 0
DWIDTH 14 0
BBX 11 23 2 0
BITMAP
0380
0300
0600
0C00
0000
FFE0
FFE0
C000
C000
C000
C000
C000
C000
FFC0
FFC0
C000
C000
C000
C000
C000
C000
FFE0
FFE0
ENDCHAR
STARTCHAR 202
ENCODING 202
SWIDTH 1008 0
DWIDTH 14 0
BBX 11 22 2 0
BITMAP
0E00
1F00
3180
0000
FFE0
FFE0
C000
C000
C000
C000
C000
C000
FFC0
FFC0
C000
C000
C000
C000
C000
C000
FFE0
FFE0
ENDCHAR
STARTCHAR 203
ENCODING 203
SWIDTH 1008 0
DWIDTH 14 0
BBX 11 22 2 0
BITMAP
1100
3B80
1100
0000
FFE0
FFE0
C000
C000
C000
C000
C000
C000
FFC0
FFC0
C000
C000
C000
C000
C000
C000
FFE0
FFE0
ENDCHAR
STARTCHAR 204
ENCODING 204
SWIDTH 576 0
DWIDTH 8 0
BBX 5 23 0 0
BITMAP
E0
60
30
18
00
18
18
18
18
18
18
18
18
18
18
18
18
18
18
18
18
18
18
ENDCHAR
STARTCHAR 205
ENCODING 205
SWIDTH 504 0
DWIDTH 7 0
BBX 5 23 2 0
BITMAP
38
30
60
C0
00
C0
C0
C0
C0
C0
C0
C0
C0
C0
C0
C0
C0
C0
C0
C0
C0
C0
C0
ENDCHAR
STARTCHAR 206
ENCODING 206
SWIDTH 504 0
DWIDTH 7 0
BBX 6 22 0 0
BITMAP
30
78
CC
00
30
30
30
30
30
30
30
30
30
30
30
30
30
30
30
30
30
30
ENDCHAR
STARTCHAR 207
ENCODING 207
SWIDTH 576 0
DWIDTH 8 0
BBX 8 22 0 0
BITMAP
42
E7
42
00
18
18
18
18
18
18
18
18
18
18
18
18
18
18
18
18
18
18
ENDCHAR
STARTCHAR 208
ENCODING 208
SWIDTH 1224 0
DWIDTH 17 0
BBX 15 18 0 0
BITMAP
3FC0
3FF0
3038
300C
300C
3006
3006
3006
FE06
FE06
3006
3006
3006
300C
300C
3038
3FF0
3FC0
ENDCHAR
STARTCHAR 209
ENCODING 209
SWIDTH 1296 0
DWIDTH 18 0
BBX 14 22 2 0
BITMAP
0640
0FC0
0980
0000
E00C
F00C
F00C
F80C
D80C
DC0C
CE0C
C60C
C70C
C38C
C18C
C1CC
C0EC
C06C
C07C
C03C
C01C
C01C
ENDCHAR
STARTCHAR 210
ENCODING 210
SWIDTH 1224 0
DWIDTH 17 0
BBX 15 23 1 0
BITMAP
0E00
0600
0300
0180
0000
07C0
1FF0
3838
301C
600C
600C
C006
C006
C006
C006
C006
C006
600C
600C
301C
3838
1FF0
07C0
ENDCHAR
STARTCHAR 211
ENCODING 211
SWIDTH 1224 0
DWIDTH 17 0
BBX 15 23 1 0
BITMAP
00E0
00C0
0180
0300
0000
07C0
1FF0
3838
301C
600C
600C
C006
C006
C006
C006
C006
C006
600C
600C
301C
3838
1FF0
07C0
ENDCHAR
STARTCHAR 212
ENCODING 212
SWIDTH 1224 0
DWIDTH 17 0
BBX 15 22 1 0
BITMAP
0380
07C0
0C60
0000
07C0
1FF0
3838
301C
600C
600C
C006
C006
C006
C006
C006
C006
600C
600C
301C
3838
1FF0
07C0
ENDCHAR
STARTCHAR 213
ENCODING 213
SWIDTH 1224 0
DWIDTH 17 0
BBX 15 22 1 0
BITMAP
0620
0FE0
08C0
0000
07C0
1FF0
3838
301C
600C
600C
C006
C006
C006
C006
C006
C006
600C
600C
301C
3838
1FF0
07C0
ENDCHAR
STARTCHAR 214
ENCODING 214
SWIDTH 1224 0
DWIDTH 17 0
BBX 15 22 1 0
BITMAP
0440
0EE0
0440
0000
07C0
1FF0
3838
3018
600C
600C
C006
C006
C006
C006
C006
C006
600C
600C
3018
3838
1FF0
07C0
ENDCHAR
STARTCHAR 215
ENCODING 215
SWIDTH 936 0
DWIDTH 13 0
BBX 11 11 1 3
BITMAP
4040
E0E0
71C0
3B80
1F00
0E00
1F00
3B80
71C0
E0E0
4040
ENDCHAR
STARTCHAR 216
ENCODING 216
SWIDTH 1224 0
DWIDTH 17 0
BBX 15 19 1 -1
BITMAP
07C6
1FFC
3838
3018
603C
606C
C046
C0C6
C186
C186
C306
C206
660C
6C0C
3818
3838
3FF0
37C0
6000
ENDCHAR
STARTCHAR 217
ENCODING 217
SWIDTH 1152 0
DWIDTH 16 0
BBX 12 23 2 0
BITMAP
3800
1800
0C00
0600
0000
C030
C030
C030
C030
C030
C030
C030
C030
C030
C030
C030
C030
C030
C030
C030
6060
7FE0
1F80
ENDCHAR
STARTCHAR 218
ENCODING 218
SWIDTH 1152 0
DWIDTH 16 0
BBX 12 23 2 0
BITMAP
01C0
0180
0300
0600
0000
C030
C030
C030
C030
C030
C030
C030
C030
C030
C030
C030
C030
C030
C030
C030
6060
7FE0
1F80
ENDCHAR
STARTCHAR 219
ENCODING 219
SWIDTH 1152 0
DWIDTH 16 0
BBX 12 22 2 0
BITMAP
0600
0F00
1980
0000
C030
C030
C030
C030
C030
C030
C030
C030
C030
C030
C030
C030
C030
C030
C030
6060
7FE0
1F80
ENDCHAR
STARTCHAR 220
ENCODING 220
SWIDTH 1152 0
DWIDTH 16 0
BBX 12 22 2 0
BITMAP
1080
39C0
1080
0000
C030
C030
C030
C030
C030
C030
C030
C030
C030
C030
C030
C030
C030
C030
C030
6060
7FE0
1F80
ENDCHAR
STARTCHAR 221
ENCODING 221
SWIDTH 1080 0
DWIDTH 15 0
BBX 12 23 1 0
BITMAP
01C0
0180
0300
0600
0000
C030
C030
6060
6060
30C0
30C0
1980
1980
0F00
0F00
0F00
0600
0600
0600
0600
0600
0600
0600
ENDCHAR
STARTCHAR 222
ENCODING 222
SWIDTH 1080 0
DWIDTH 15 0
BBX 12 18 2 0
BITMAP
C000
C000
C000
C000
FF80
FFE0
C060
C030
C030
C030
C030
C060
FFE0
FF80
C000
C000
C000
C000
ENDCHAR
STARTCHAR 223
ENCODING 223
SWIDTH 1080 0
DWIDTH 15 0
BBX 11 19 2 0
BITMAP
3E00
7F00
E380
C180
C180
C180
C300
C600
C600
C700
C380
C1C0
C0E0
C060
C060
C060
C0E0
CFC0
CF80
ENDCHAR
STARTCHAR 224
ENCODING 224
SWIDTH 1008 0
DWIDTH 14 0
BBX 10 19 2 0
BITMAP
7000
3000
1800
0C00
0000
0000
3F00
7F80
E1C0
C0C0
00C0
3FC0
7FC0
E0C0
C0C0
C0C0
E1C0
7FC0
3EC0
ENDCHAR
STARTCHAR 225
ENCODING 225
SWIDTH 1008 0
DWIDTH 14 0
BBX 10 19 2 0
BITMAP
0380
0300
0600
0C00
0000
0000
3F00
7F80
E1C0
C0C0
00C0
3FC0
7FC0
E0C0
C0C0
C0C0
E1C0
7FC0
3EC0
ENDCHAR
STARTCHAR 226
ENCODING 226
SWIDTH 1008 0
DWIDTH 14 0
BBX 10 18 2 0
BITMAP
0C00
1E00
3300
0000
0000
3F00
7F80
E1C0
C0C0
00C0
3FC0
7FC0
E0C0
C0C0
C0C0
E1C0
7FC0
3EC0
ENDCHAR
STARTCHAR 227
ENCODING 227
SWIDTH 1008 0
DWIDTH 14 0
BBX 10 18 2 0
BITMAP
1900
3F00
2600
0000
0000
3F00
7F80
E1C0
C0C0
00C0
3FC0
7FC0
E0C0
C0C0
C0C0
E1C0
7FC0
3EC0
ENDCHAR
STARTCHAR 228
ENCODING 228
SWIDTH 1008 0
DWIDTH 14 0
BBX 10 18 2 0
BITMAP
2100
7380
2100
0000
0000
3F00
7F80
E1C0
C0C0
00C0
3FC0
7FC0
E0C0
C0C0
C0C0
E1C0
7FC0
3EC0
ENDCHAR
STARTCHAR 229
ENCODING 229
SWIDTH 1008 0
DWIDTH 14 0
BBX 10 20 2 0
BITMAP
1E00
3300
3300
3300
1E00
0000
0000
3F00
7F80
E1C0
C0C0
00C0
3FC0
7FC0
E0C0
C0C0
C0C0
E1C0
7FC0
3EC0
ENDCHAR
STARTCHAR 230
ENCODING 230
SWIDTH 1512 0
DWIDTH 21 0
BBX 19 13 1 0
BITMAP
3F1F00
7FBFC0
C1F0C0
C0E060
00C060
3FFFE0
7FFFE0
E0C000
C0E000
C0E040
E1F0E0
7FBFC0
3E0F80
ENDCHAR
STARTCHAR 231
ENCODING 231
SWIDTH 936 0
DWIDTH 13 0
BBX 11 18 1 -5
BITMAP
0F00
3FC0
70E0
6060
C060
C000
C000
C000
C000
6060
70E0
3FC0
0F00
0C00
0E00
0300
0300
0E00
ENDCHAR
STARTCHAR 232
ENCODING 232
SWIDTH 936 0
DWIDTH 13 0
BBX 11 19 1 0
BITMAP
3800
1800
0C00
0600
0000
0000
0E00
3F80
71C0
60C0
C060
FFE0
FFE0
C000
C000
6040
70E0
3FC0
0F00
ENDCHAR
STARTCHAR 233
ENCODING 233
SWIDTH 936 0
DWIDTH 13 0
BBX 11 19 1 0
BITMAP
01C0
0180
0300
0600
0000
0000
0E00
3F80
71C0
60C0
C060
FFE0
FFE0
C000
C000
6040
70E0
3FC0
0F00
ENDCHAR
STARTCHAR 234
ENCODING 234
SWIDTH 936 0
DWIDTH 13 0
BBX 11 18 1 0
BITMAP
0600
0F00
1980
0000
0000
0E00
3F80
71C0
60C0
C060
FFE0
FFE0
C000
C000
6040
70E0
3FC0
0F00
ENDCHAR
STARTCHAR 235
ENCODING 235
SWIDTH 936 0
DWIDTH 13 0
BBX 11 18 1 0
BITMAP
1080
39C0
1080
0000
0000
0E00
3F80
71C0
60C0
C060
FFE0
FFE0
C000
C000
6040
70E0
3FC0
0F00
ENDCHAR
STARTCHAR 236
ENCODING 236
SWIDTH 504 0
DWIDTH 7 0
BBX 5 19 0 0
BITMAP
E0
60
30
18
00
00
18
18
18
18
18
18
18
18
18
18
18
18
18
ENDCHAR
STARTCHAR 237
ENCODING 237
SWIDTH 504 0
DWIDTH 7 0
BBX 5 19 2 0
BITMAP
38
30
60
C0
00
00
C0
C0
C0
C0
C0
C0
C0
C0
C0
C0
C0
C0
C0
ENDCHAR
STARTCHAR 238
ENCODING 238
SWIDTH 504 0
DWIDTH 7 0
BBX 6 18 0 0
BITMAP
30
78
CC
00
00
30
30
30
30
30
30
30
30
30
30
30
30
30
ENDCHAR
STARTCHAR 239
ENCODING 239
SWIDTH 576 0
DWIDTH 8 0
BBX 8 18 0 0
BITMAP
42
E7
42
00
00
18
18
18
18
18
18
18
18
18
18
18
18
18
ENDCHAR
STARTCHAR 240
ENCODING 240
SWIDTH 1080 0
DWIDTH 15 0
BBX 11 19 2 0
BITMAP
3000
7CC0
1F80
0700
0F80
19C0
00C0
0EE0
3FE0
70E0
6060
C060
C060
C060
C060
60C0
71C0
3F80
0E00
ENDCHAR
STARTCHAR 241
ENCODING 241
SWIDTH 1008 0
DWIDTH 14 0
BBX 10 18 2 0
BITMAP
3880
7F80
4700
0000
0000
DF00
FF80
E1C0
C0C0
C0C0
C0C0
C0C0
C0C0
C0C0
C0C0
C0C0
C0C0
C0C0
ENDCHAR
STARTCHAR 242
ENCODING 242
SWIDTH 1008 0
DWIDTH 14 0
BBX 12 19 1 0
BITMAP
3800
1800
0C00
0600
0000
0000
0F00
3FC0
70E0
6060
C030
C030
C030
C030
C030
6060
70E0
3FC0
0F00
ENDCHAR
STARTCHAR 243
ENCODING 243
SWIDTH 1008 0
DWIDTH 14 0
BBX 12 19 1 0
BITMAP
01C0
0180
0300
0600
0000
0000
0F00
3FC0
70E0
6060
C030
C030
C030
C030
C030
6060
70E0
3FC0
0F00
ENDCHAR
STARTCHAR 244
ENCODING 244
SWIDTH 1008 0
DWIDTH 14 0
BBX 12 18 1 0
BITMAP
0600
0F00
1980
0000
0000
1F80
3FC0
70E0
6060
C030
C030
C030
C030
C030
6060
70E0
3FC0
1F80
ENDCHAR
STARTCHAR 245
ENCODING 245
SWIDTH 1008 0
DWIDTH 14 0
BBX 12 18 1 0
BITMAP
0C80
1F80
1300
0000
0000
0F00
3FC0
70E0
6060
C030
C030
C030
C030
C030
6060
70E0
3FC0
0F00
ENDCHAR
STARTCHAR 246
ENCODING 246
SWIDTH 1008 0
DWIDTH 14 0
BBX 12 18 1 0
BITMAP
1080
39C0
1080
0000
0000
0F00
3FC0
70E0
6060
C030
C030
C030
C030
C030
6060
70E0
3FC0
0F00
ENDCHAR
STARTCHAR 247
ENCODING 247
SWIDTH 1008 0
DWIDTH 14 0
BBX 12 14 1 2
BITMAP
0600
0E00
0600
0000
0000
0000
FFF0
FFF0
0000
0000
0000
0600
0E00
0600
ENDCHAR
STARTCHAR 248
ENCODING 248
SWIDTH 1008 0
DWIDTH 14 0
BBX 12 15 1 -1
BITMAP
0060
0F40
3FC0
71E0
61E0
C330
C230
C630
C430
CC30
6860
78E0
3FC0
7F00
4000
ENDCHAR
STARTCHAR 249
ENCODING 249
SWIDTH 1008 0
DWIDTH 14 0
BBX 10 19 2 0
BITMAP
7000
3000
1800
0C00
0000
0000
C0C0
C0C0
C0C0
C0C0
C0C0
C0C0
C0C0
C0C0
C0C0
C0C0
E1C0
7FC0
3EC0
ENDCHAR
STARTCHAR 250
ENCODING 250
SWIDTH 1008 0
DWIDTH 14 0
BBX 10 19 2 0
BITMAP
0380
0300
0600
0C00
0000
0000
C0C0
C0C0
C0C0
C0C0
C0C0
C0C0
C0C0
C0C0
C0C0
C0C0
E1C0
7FC0
3EC0
ENDCHAR
STARTCHAR 251
ENCODING 251
SWIDTH 1008 0
DWIDTH 14 0
BBX 10 18 2 0
BITMAP
0C00
1E00
3300
0000
0000
C0C0
C0C0
C0C0
C0C0
C0C0
C0C0
C0C0
C0C0
C0C0
C0C0
E1C0
7FC0
3EC0
ENDCHAR
STARTCHAR 252
ENCODING 252
SWIDTH 1008 0
DWIDTH 14 0
BBX 10 18 2 0
BITMAP
2100
7380
2100
0000
0000
C0C0
C0C0
C0C0
C0C0
C0C0
C0C0
C0C0
C0C0
C0C0
C0C0
E1C0
7FC0
3EC0
ENDCHAR
STARTCHAR 253
ENCODING 253
SWIDTH 864 0
DWIDTH 12 0
BBX 12 24 0 -5
BITMAP
01C0
0180
0300
0600
0000
0000
E070
6060
70E0
30C0
30C0
39C0
1980
1980
1F80
0F00
0F00
0700
0600
0600
0C00
0C00
7800
7000
ENDCHAR
STARTCHAR 254
ENCODING 254
SWIDTH 1008 0
DWIDTH 14 0
BBX 11 24 2 -5
BITMAP
C000
C000
C000
C000
C000
C000
DF00
FF80
E1C0
C0C0
C060
C060
C060
C060
C060
C0C0
E1C0
FF80
DF00
C000
C000
C000
C000
C000
ENDCHAR
STARTCHAR 255
ENCODING 255
SWIDTH 864 0
DWIDTH 12 0
BBX 12 23 0 -5
BITMAP
1080
39C0
1080
0000
0000
E070
6060
70E0
30C0
30C0
39C0
1980
1980
1F80
0F00
0F00
0700
0600
0600
0C00
0C00
7800
7000
ENDCHAR
ENDFONT
